<svg xmlns="http://www.w3.org/2000/svg" viewBox="0 0 24 24" fill="none">
  <!-- 外框 -->
  <rect x="2.5" y="4.75" width="19" height="14.5" rx="2.5" stroke="currentColor" stroke-width="1.6"/>
  <!-- CSM 文字 -->
  <path d="M8.35 9H5.45C4.62 9 4 9.62 4 10.45v3.1C4 14.38 4.62 15 5.45 15h2.9v-1.4H5.88c-.31 0-.48-.17-.48-.48v-2.24c0-.31.17-.48.48-.48h2.47V9Z" fill="currentColor"/>
  <path d="M13.55 9H10.88C10.04 9 9.42 9.62 9.42 10.4v.38c0 .82.63 1.34 1.42 1.34h1.22c.27 0 .43.14.43.4v.66c0 .25-.16.42-.43.42H9.52V15h2.74c.84 0 1.46-.62 1.46-1.46v-.82c0-.81-.62-1.37-1.43-1.37H11.1c-.26 0-.42-.14-.42-.38v-.2c0-.24.16-.37.42-.37h2.45V9Z" fill="currentColor"/>
  <path d="M19.98 15V9h-1.28l-1.44 2.16L15.82 9h-1.28v6h1.43v-3.34l1.12 1.64h.34l1.12-1.64V15h1.43Z" fill="currentColor"/>
</svg>

