<svg xmlns="http://www.w3.org/2000/svg" width="24" height="24" viewBox="0 0 24 24" fill="none">
  <rect x="3" y="5.25" width="18" height="13.5" rx="2.25" stroke="currentColor" stroke-width="1.55"/>
  <path d="M8.35 9H6.45C5.62 9 5 9.62 5 10.45v3.1C5 14.38 5.62 15 6.45 15h1.9v-1.4H6.88c-.31 0-.48-.17-.48-.48v-2.24c0-.31.17-.48.48-.48h1.47V9Z" fill="currentColor"/>
  <path d="M12.55 9H9.88C9.04 9 8.42 9.62 8.42 10.4v.38c0 .82.63 1.34 1.42 1.34h1.22c.27 0 .43.14.43.4v.66c0 .25-.16.42-.43.42H8.52V15h2.74c.84 0 1.46-.62 1.46-1.46v-.82c0-.81-.62-1.37-1.43-1.37H10.1c-.26 0-.42-.14-.42-.38v-.2c0-.24.16-.37.42-.37h2.45V9Z" fill="currentColor"/>
  <path d="M18.98 15V9h-1.28l-1.44 2.16L14.82 9h-1.28v6h1.43v-3.34l1.12 1.64h.34l1.12-1.64V15h1.43Z" fill="currentColor"/>
</svg>
